<?xml version="1.0" encoding="iso-8859-1"?>
<!-- Generator: Adobe Illustrator 19.0.0, SVG Export Plug-In . SVG Version: 6.00 Build 0)  -->
<svg version="1.1" id="Capa_1" xmlns="http://www.w3.org/2000/svg" xmlns:xlink="http://www.w3.org/1999/xlink" x="0px" y="0px"
	 viewBox="0 0 218.453 218.453" style="enable-background:new 0 0 218.453 218.453;" xml:space="preserve">
<g id="SVGCleanerId_0">
	<g>
		<path d="M133.448,83.342H85.475c-1.884,0-3.413,1.529-3.413,3.413s1.529,3.413,3.413,3.413h47.973
			c1.886,0,3.413-1.529,3.413-3.413S135.332,83.342,133.448,83.342z"/>
	</g>
</g>
<g>
	<g>
		<path d="M132.018,103.822H86.91c-1.884,0-3.413,1.529-3.413,3.413s1.529,3.413,3.413,3.413h45.107
			c1.886,0,3.413-1.529,3.413-3.413S133.902,103.822,132.018,103.822z"/>
	</g>
</g>
<g>
	<g>
		<path d="M140.477,60.355l-16.86-6.132c-9.281-3.374-19.5-3.374-28.781,0l-15.995,5.816c-1.771,0.643-2.685,2.603-2.041,4.374
			c0.643,1.772,2.606,2.686,4.374,2.041l15.995-5.816c7.774-2.83,16.338-2.83,24.114,0l16.86,6.132
			c0.386,0.14,0.778,0.206,1.167,0.206c1.394,0,2.703-0.86,3.208-2.248C143.162,62.957,142.249,61,140.477,60.355z"/>
	</g>
</g>
<g>
	<g>
		<path d="M133.448,83.342H85.475c-1.884,0-3.413,1.529-3.413,3.413s1.529,3.413,3.413,3.413h47.973
			c1.886,0,3.413-1.529,3.413-3.413S135.332,83.342,133.448,83.342z"/>
	</g>
</g>
<g>
	<g>
		<path d="M60.302,32.712c-11.836,0-21.48,9.561-21.617,21.364l-2.099,14.693c-0.268,1.867,1.029,3.596,2.896,3.862
			c1.862,0.27,3.596-1.029,3.862-2.895l2.132-14.923c0.022-0.16,0.034-0.321,0.034-0.483c0-8.156,6.635-14.792,14.792-14.792
			c8.156,0,14.792,6.637,14.792,14.792v22.803c0,1.884,1.529,3.413,3.413,3.413c1.884,0,3.413-1.529,3.413-3.413V54.33
			C81.92,42.409,72.221,32.712,60.302,32.712z"/>
	</g>
</g>
<g>
	<g>
		<path d="M42.583,68.478c-0.939-1.633-3.026-2.195-4.661-1.254c-8.962,5.163-15.015,13.959-16.608,24.137
			c-0.544,3.487-1.162,7.439-2.215,11.126l-0.951,3.328c-0.517,1.814,0.533,3.703,2.345,4.221c0.312,0.09,0.628,0.133,0.939,0.133
			c1.485,0,2.852-0.978,3.279-2.48l0.951-3.328c1.171-4.093,1.823-8.267,2.398-11.947c1.27-8.125,6.106-15.152,13.269-19.275
			C42.962,72.199,43.522,70.112,42.583,68.478z"/>
	</g>
</g>
<g>
	<g>
		<path d="M54.827,62.72c-5.939,0-11.783,1.558-16.903,4.506c-1.633,0.94-2.195,3.028-1.254,4.661
			c0.94,1.633,3.028,2.193,4.661,1.254c4.084-2.35,8.75-3.594,13.496-3.594c14.938,0,27.093,12.153,27.093,27.093v45.867
			c0,1.884,1.529,3.413,3.413,3.413s3.413-1.527,3.413-3.413V96.64C88.747,77.937,73.53,62.72,54.827,62.72z"/>
	</g>
</g>
<g>
	<g>
		<path d="M44.373,96.995C19.907,96.995,0,116.9,0,141.368c0,24.468,19.907,44.373,44.373,44.373s44.373-19.905,44.373-44.373
			C88.747,116.9,68.84,96.995,44.373,96.995z M44.373,178.915c-20.704,0-37.547-16.843-37.547-37.547
			c0-20.704,16.843-37.547,37.547-37.547s37.547,16.843,37.547,37.547C81.92,162.072,65.077,178.915,44.373,178.915z"/>
	</g>
</g>
<g>
	<g>
		<path d="M44.373,107.235c-18.821,0-34.133,15.312-34.133,34.133s15.312,34.133,34.133,34.133s34.133-15.312,34.133-34.133
			S63.194,107.235,44.373,107.235z M44.373,168.675c-15.056,0-27.307-12.25-27.307-27.307s12.25-27.307,27.307-27.307
			s27.307,12.25,27.307,27.307S59.43,168.675,44.373,168.675z"/>
	</g>
</g>
<g>
	<g>
		<path d="M38.265,121.52c-0.846-1.686-2.895-2.374-4.581-1.524c-5.414,2.708-9.564,7.32-11.689,12.979
			c-0.662,1.765,0.232,3.732,1.997,4.395c0.394,0.148,0.8,0.22,1.198,0.22c1.382,0,2.683-0.846,3.197-2.212
			c1.519-4.047,4.485-7.339,8.354-9.277C38.427,125.256,39.108,123.204,38.265,121.52z"/>
	</g>
</g>
<g>
	<g>
		<path d="M181.818,68.431l-2.051-14.355c-0.135-11.803-9.779-21.364-21.615-21.364c-11.919,0-21.618,9.699-21.618,21.618v22.444
			c0,1.884,1.529,3.413,3.413,3.413c1.884,0,3.413-1.529,3.412-3.413V54.33c0-8.156,6.635-14.792,14.792-14.792
			c8.154,0,14.79,6.637,14.79,14.792c0,0.162,0.012,0.323,0.036,0.483l2.086,14.585c0.27,1.865,2.019,3.164,3.862,2.895
			C180.789,72.025,182.084,70.298,181.818,68.431z"/>
	</g>
</g>
<g>
	<g>
		<path d="M200.12,105.175l-0.637-2.232c-1.06-3.712-1.679-7.504-2.336-11.522l-0.046-0.28
			c-2.685-16.468-16.763-28.421-33.475-28.421c-18.703,0-33.92,15.217-33.92,33.92v45.867c0,1.884,1.529,3.413,3.413,3.413
			c1.884,0,3.413-1.527,3.412-3.413V96.64c0-14.94,12.153-27.093,27.093-27.093c13.348,0,24.593,9.545,26.738,22.695l0.044,0.28
			c0.66,4.033,1.341,8.206,2.512,12.297l0.637,2.231c0.517,1.813,2.406,2.865,4.219,2.345
			C199.588,108.877,200.639,106.988,200.12,105.175z"/>
	</g>
</g>
<g>
	<g>
		<path d="M174.08,96.995c-24.469,0-44.373,19.905-44.373,44.373c0,24.468,19.905,44.373,44.373,44.373s44.373-19.905,44.373-44.373
			C218.453,116.9,198.549,96.995,174.08,96.995z M174.08,178.915c-20.704,0-37.547-16.843-37.547-37.547
			c0-20.704,16.843-37.547,37.547-37.547s37.547,16.843,37.547,37.547C211.627,162.072,194.784,178.915,174.08,178.915z"/>
	</g>
</g>
<g>
	<g>
		<path d="M174.08,107.235c-18.821,0-34.133,15.312-34.133,34.133s15.312,34.133,34.133,34.133s34.133-15.312,34.133-34.133
			S192.901,107.235,174.08,107.235z M174.08,168.675c-15.056,0-27.307-12.25-27.307-27.307s12.25-27.307,27.307-27.307
			s27.307,12.25,27.307,27.307S189.136,168.675,174.08,168.675z"/>
	</g>
</g>
<g>
	<g>
		<path d="M167.972,121.52c-0.845-1.686-2.896-2.374-4.581-1.524c-5.414,2.71-9.564,7.322-11.687,12.979
			c-0.664,1.765,0.23,3.732,1.995,4.395c0.396,0.148,0.802,0.22,1.2,0.22c1.381,0,2.681-0.846,3.195-2.212
			c1.519-4.047,4.485-7.339,8.354-9.277C168.136,125.256,168.817,123.204,167.972,121.52z"/>
	</g>
</g>
<g>
</g>
<g>
</g>
<g>
</g>
<g>
</g>
<g>
</g>
<g>
</g>
<g>
</g>
<g>
</g>
<g>
</g>
<g>
</g>
<g>
</g>
<g>
</g>
<g>
</g>
<g>
</g>
<g>
</g>
</svg>
