<?xml version="1.0" encoding="iso-8859-1"?>
<!-- Generator: Adobe Illustrator 19.0.0, SVG Export Plug-In . SVG Version: 6.00 Build 0)  -->
<svg version="1.1" id="Layer_1" xmlns="http://www.w3.org/2000/svg" xmlns:xlink="http://www.w3.org/1999/xlink" x="0px" y="0px"
	 viewBox="0 0 511.996 511.996" style="enable-background:new 0 0 511.996 511.996;" xml:space="preserve">
<g>
	<g>
		<g>
			<path d="M371.123,455.543c4.156,4.172,10.922,4.172,15.078,0c4.172-4.172,4.172-10.922,0-15.078
				c-4.156-4.188-10.922-4.188-15.078,0C366.951,444.621,366.951,451.371,371.123,455.543z"/>
			<path d="M462.871,80.562l-21.342-42.664c-1.797-3.617-5.5-5.898-9.531-5.898h-53.344h-10.656h-96V10.664
				C271.998,4.773,267.217,0,261.326,0h-85.327c-5.89,0-10.671,4.773-10.671,10.664V32H58.656C52.766,32,48,36.773,48,42.664v42.671
				v42.664c0,1.656,0.375,3.289,1.125,4.773l41.531,83.078v178.804c0,1.188,0.141,29.061,11.438,57.311
				c15.703,39.281,44.953,60.031,84.562,60.031h191.999c35.297,0,64-28.719,64-64c0-31.656-23.094-58.014-53.328-63.107V85.335v-32
				h36.078L443.78,90.1c1.875,3.742,5.641,5.898,9.562,5.898c1.594,0,3.219-0.359,4.75-1.125
				C463.371,92.242,465.496,85.828,462.871,80.562z M186.655,21.336h64V32h-64V21.336z M69.328,53.336h106.671h85.327h106.672
				v21.328H69.328V53.336z M330.998,490.651H186.655c-30.421,0.001-52.14-15.499-64.562-46.124
				C112.172,420.058,112,394.904,112,394.654v-181.32c0-1.656-0.391-3.289-1.125-4.773l-41.547-83.078V95.999h298.67v288.889
				c-30.234,5.094-53.344,31.451-53.344,63.107C314.654,464.37,320.842,479.339,330.998,490.651z M421.326,447.996
				c0,23.531-19.141,42.656-42.672,42.656c-23.516,0-42.656-19.125-42.656-42.656s19.141-42.656,42.656-42.656
				C402.186,405.34,421.326,424.465,421.326,447.996z"/>
		</g>
	</g>
</g>
<g>
</g>
<g>
</g>
<g>
</g>
<g>
</g>
<g>
</g>
<g>
</g>
<g>
</g>
<g>
</g>
<g>
</g>
<g>
</g>
<g>
</g>
<g>
</g>
<g>
</g>
<g>
</g>
<g>
</g>
</svg>
